<svg width="300" height="300" viewBox="0 0 300 300" fill="none" xmlns="http://www.w3.org/2000/svg">
<rect width="300" height="300" fill="url(#paint0_linear_834_33)"/>
<path d="M60.4108 147.32V161H56.2708V139.7H59.5708L70.5808 153.74V139.73H74.7208V161H71.2708L60.4108 147.32ZM88.2416 161.15C86.6816 161.15 85.2616 160.85 83.9816 160.25C82.7216 159.65 81.6316 158.84 80.7116 157.82C79.8116 156.78 79.1116 155.62 78.6116 154.34C78.1116 153.04 77.8616 151.71 77.8616 150.35C77.8616 148.93 78.1216 147.58 78.6416 146.3C79.1816 145 79.9116 143.85 80.8316 142.85C81.7716 141.83 82.8716 141.03 84.1316 140.45C85.4116 139.85 86.8116 139.55 88.3316 139.55C89.8716 139.55 91.2716 139.86 92.5316 140.48C93.8116 141.1 94.9016 141.93 95.8016 142.97C96.7016 144.01 97.4016 145.17 97.9016 146.45C98.4016 147.73 98.6516 149.05 98.6516 150.41C98.6516 151.81 98.3916 153.16 97.8716 154.46C97.3516 155.74 96.6216 156.89 95.6816 157.91C94.7616 158.91 93.6616 159.7 92.3816 160.28C91.1216 160.86 89.7416 161.15 88.2416 161.15ZM82.0616 150.35C82.0616 151.27 82.2016 152.16 82.4816 153.02C82.7616 153.88 83.1616 154.65 83.6816 155.33C84.2216 155.99 84.8716 156.52 85.6316 156.92C86.4116 157.3 87.2916 157.49 88.2716 157.49C89.2716 157.49 90.1616 157.29 90.9416 156.89C91.7216 156.47 92.3716 155.92 92.8916 155.24C93.4116 154.54 93.8016 153.77 94.0616 152.93C94.3416 152.07 94.4816 151.21 94.4816 150.35C94.4816 149.43 94.3316 148.55 94.0316 147.71C93.7516 146.85 93.3416 146.09 92.8016 145.43C92.2816 144.75 91.6316 144.22 90.8516 143.84C90.0916 143.44 89.2316 143.24 88.2716 143.24C87.2516 143.24 86.3516 143.45 85.5716 143.87C84.8116 144.27 84.1716 144.81 83.6516 145.49C83.1316 146.17 82.7316 146.93 82.4516 147.77C82.1916 148.61 82.0616 149.47 82.0616 150.35ZM101.827 161V139.7H109.567C111.887 139.7 113.827 140.18 115.387 141.14C116.947 142.08 118.117 143.36 118.897 144.98C119.677 146.58 120.067 148.36 120.067 150.32C120.067 152.48 119.637 154.36 118.777 155.96C117.917 157.56 116.697 158.8 115.117 159.68C113.557 160.56 111.707 161 109.567 161H101.827ZM115.897 150.32C115.897 148.94 115.647 147.73 115.147 146.69C114.647 145.63 113.927 144.81 112.987 144.23C112.047 143.63 110.907 143.33 109.567 143.33H105.967V157.37H109.567C110.927 157.37 112.077 157.07 113.017 156.47C113.957 155.85 114.667 155.01 115.147 153.95C115.647 152.87 115.897 151.66 115.897 150.32ZM132.392 161.15C130.832 161.15 129.412 160.85 128.132 160.25C126.872 159.65 125.782 158.84 124.862 157.82C123.962 156.78 123.262 155.62 122.762 154.34C122.262 153.04 122.012 151.71 122.012 150.35C122.012 148.93 122.272 147.58 122.792 146.3C123.332 145 124.062 143.85 124.982 142.85C125.922 141.83 127.022 141.03 128.282 140.45C129.562 139.85 130.962 139.55 132.482 139.55C134.022 139.55 135.422 139.86 136.682 140.48C137.962 141.1 139.052 141.93 139.952 142.97C140.852 144.01 141.552 145.17 142.052 146.45C142.552 147.73 142.802 149.05 142.802 150.41C142.802 151.81 142.542 153.16 142.022 154.46C141.502 155.74 140.772 156.89 139.832 157.91C138.912 158.91 137.812 159.7 136.532 160.28C135.272 160.86 133.892 161.15 132.392 161.15ZM126.212 150.35C126.212 151.27 126.352 152.16 126.632 153.02C126.912 153.88 127.312 154.65 127.832 155.33C128.372 155.99 129.022 156.52 129.782 156.92C130.562 157.3 131.442 157.49 132.422 157.49C133.422 157.49 134.312 157.29 135.092 156.89C135.872 156.47 136.522 155.92 137.042 155.24C137.562 154.54 137.952 153.77 138.212 152.93C138.492 152.07 138.632 151.21 138.632 150.35C138.632 149.43 138.482 148.55 138.182 147.71C137.902 146.85 137.492 146.09 136.952 145.43C136.432 144.75 135.782 144.22 135.002 143.84C134.242 143.44 133.382 143.24 132.422 143.24C131.402 143.24 130.502 143.45 129.722 143.87C128.962 144.27 128.322 144.81 127.802 145.49C127.282 146.17 126.882 146.93 126.602 147.77C126.342 148.61 126.212 149.47 126.212 150.35Z" fill="#E9F0F6" fill-opacity="0.8"/>
<path d="M150.118 147.32V161H145.978V139.7H149.278L160.288 153.74V139.73H164.428V161H160.978L150.118 147.32ZM183.649 157.37V161H168.859V139.7H183.379V143.33H172.999V148.46H181.969V151.82H172.999V157.37H183.649ZM189.096 139.7L194.376 147.56L199.626 139.7H204.126L196.746 150.5L203.886 161H199.386L194.376 153.44L189.336 161H184.806L191.946 150.5L184.566 139.7H189.096ZM215.301 161.15C213.601 161.15 212.151 160.87 210.951 160.31C209.771 159.73 208.811 158.94 208.071 157.94C207.351 156.94 206.821 155.81 206.481 154.55C206.141 153.27 205.971 151.94 205.971 150.56V139.7H210.111V150.56C210.111 151.44 210.191 152.3 210.351 153.14C210.531 153.96 210.821 154.7 211.221 155.36C211.621 156.02 212.151 156.54 212.811 156.92C213.471 157.3 214.291 157.49 215.271 157.49C216.271 157.49 217.101 157.3 217.761 156.92C218.441 156.52 218.971 155.99 219.351 155.33C219.751 154.67 220.041 153.93 220.221 153.11C220.401 152.27 220.491 151.42 220.491 150.56V139.7H224.601V150.56C224.601 152.02 224.421 153.39 224.061 154.67C223.721 155.95 223.171 157.08 222.411 158.06C221.671 159.02 220.711 159.78 219.531 160.34C218.351 160.88 216.941 161.15 215.301 161.15ZM241.461 145.28C241.321 145.14 241.061 144.95 240.681 144.71C240.321 144.47 239.871 144.24 239.331 144.02C238.811 143.8 238.241 143.61 237.621 143.45C237.001 143.27 236.371 143.18 235.731 143.18C234.611 143.18 233.761 143.39 233.181 143.81C232.621 144.23 232.341 144.82 232.341 145.58C232.341 146.16 232.521 146.62 232.881 146.96C233.241 147.3 233.781 147.59 234.501 147.83C235.221 148.07 236.121 148.33 237.201 148.61C238.601 148.95 239.811 149.37 240.831 149.87C241.871 150.35 242.661 150.99 243.201 151.79C243.761 152.57 244.041 153.61 244.041 154.91C244.041 156.05 243.831 157.03 243.411 157.85C242.991 158.65 242.411 159.3 241.671 159.8C240.931 160.3 240.091 160.67 239.151 160.91C238.211 161.13 237.211 161.24 236.151 161.24C235.091 161.24 234.031 161.13 232.971 160.91C231.911 160.69 230.891 160.38 229.911 159.98C228.931 159.56 228.031 159.06 227.211 158.48L229.041 154.91C229.221 155.09 229.541 155.33 230.001 155.63C230.461 155.91 231.021 156.2 231.681 156.5C232.341 156.78 233.061 157.02 233.841 157.22C234.621 157.42 235.411 157.52 236.211 157.52C237.331 157.52 238.181 157.33 238.761 156.95C239.341 156.57 239.631 156.03 239.631 155.33C239.631 154.69 239.401 154.19 238.941 153.83C238.481 153.47 237.841 153.16 237.021 152.9C236.201 152.62 235.231 152.32 234.111 152C232.771 151.62 231.651 151.2 230.751 150.74C229.851 150.26 229.181 149.66 228.741 148.94C228.301 148.22 228.081 147.32 228.081 146.24C228.081 144.78 228.421 143.56 229.101 142.58C229.801 141.58 230.741 140.83 231.921 140.33C233.101 139.81 234.411 139.55 235.851 139.55C236.851 139.55 237.791 139.66 238.671 139.88C239.571 140.1 240.411 140.39 241.191 140.75C241.971 141.11 242.671 141.5 243.291 141.92L241.461 145.28Z" fill="#F03A47"/>
<path d="M205.751 114.933V119H205.261V114.03H205.667L208.929 118.174V114.037H209.419V119H208.964L205.751 114.933ZM212.67 119.035C212.32 119.035 212.003 118.965 211.718 118.825C211.434 118.685 211.189 118.496 210.983 118.258C210.778 118.015 210.619 117.745 210.507 117.446C210.395 117.143 210.339 116.832 210.339 116.515C210.339 116.184 210.398 115.869 210.514 115.57C210.631 115.267 210.794 114.998 211.004 114.765C211.219 114.527 211.469 114.34 211.753 114.205C212.038 114.065 212.346 113.995 212.677 113.995C213.027 113.995 213.345 114.067 213.629 114.212C213.914 114.357 214.157 114.55 214.357 114.793C214.563 115.036 214.721 115.306 214.833 115.605C214.945 115.904 215.001 116.209 215.001 116.522C215.001 116.853 214.943 117.171 214.826 117.474C214.71 117.773 214.546 118.041 214.336 118.279C214.126 118.512 213.879 118.697 213.594 118.832C213.31 118.967 213.002 119.035 212.67 119.035ZM210.829 116.515C210.829 116.786 210.874 117.047 210.962 117.299C211.051 117.546 211.177 117.768 211.34 117.964C211.504 118.155 211.697 118.309 211.921 118.426C212.15 118.538 212.4 118.594 212.67 118.594C212.955 118.594 213.209 118.536 213.433 118.419C213.662 118.298 213.856 118.139 214.014 117.943C214.178 117.742 214.301 117.518 214.385 117.271C214.469 117.024 214.511 116.772 214.511 116.515C214.511 116.244 214.467 115.985 214.378 115.738C214.29 115.491 214.161 115.269 213.993 115.073C213.83 114.877 213.636 114.723 213.412 114.611C213.188 114.499 212.941 114.443 212.67 114.443C212.39 114.443 212.136 114.501 211.907 114.618C211.683 114.735 211.49 114.893 211.326 115.094C211.168 115.29 211.044 115.512 210.955 115.759C210.871 116.006 210.829 116.258 210.829 116.515ZM215.925 119V114.03H217.612C218.14 114.03 218.578 114.142 218.928 114.366C219.283 114.585 219.549 114.884 219.726 115.262C219.904 115.635 219.992 116.051 219.992 116.508C219.992 117.012 219.894 117.451 219.698 117.824C219.507 118.197 219.232 118.487 218.872 118.692C218.518 118.897 218.098 119 217.612 119H215.925ZM219.502 116.508C219.502 116.111 219.428 115.759 219.278 115.451C219.134 115.143 218.921 114.903 218.641 114.73C218.361 114.553 218.018 114.464 217.612 114.464H216.415V118.566H217.612C218.023 118.566 218.368 118.475 218.648 118.293C218.928 118.111 219.141 117.866 219.285 117.558C219.43 117.245 219.502 116.895 219.502 116.508ZM222.931 119.035C222.581 119.035 222.264 118.965 221.979 118.825C221.694 118.685 221.449 118.496 221.244 118.258C221.039 118.015 220.88 117.745 220.768 117.446C220.656 117.143 220.6 116.832 220.6 116.515C220.6 116.184 220.658 115.869 220.775 115.57C220.892 115.267 221.055 114.998 221.265 114.765C221.48 114.527 221.729 114.34 222.014 114.205C222.299 114.065 222.607 113.995 222.938 113.995C223.288 113.995 223.605 114.067 223.89 114.212C224.175 114.357 224.417 114.55 224.618 114.793C224.823 115.036 224.982 115.306 225.094 115.605C225.206 115.904 225.262 116.209 225.262 116.522C225.262 116.853 225.204 117.171 225.087 117.474C224.97 117.773 224.807 118.041 224.597 118.279C224.387 118.512 224.14 118.697 223.855 118.832C223.57 118.967 223.262 119.035 222.931 119.035ZM221.09 116.515C221.09 116.786 221.134 117.047 221.223 117.299C221.312 117.546 221.438 117.768 221.601 117.964C221.764 118.155 221.958 118.309 222.182 118.426C222.411 118.538 222.66 118.594 222.931 118.594C223.216 118.594 223.47 118.536 223.694 118.419C223.923 118.298 224.116 118.139 224.275 117.943C224.438 117.742 224.562 117.518 224.646 117.271C224.73 117.024 224.772 116.772 224.772 116.515C224.772 116.244 224.728 115.985 224.639 115.738C224.55 115.491 224.422 115.269 224.254 115.073C224.091 114.877 223.897 114.723 223.673 114.611C223.449 114.499 223.202 114.443 222.931 114.443C222.651 114.443 222.397 114.501 222.168 114.618C221.944 114.735 221.75 114.893 221.587 115.094C221.428 115.29 221.305 115.512 221.216 115.759C221.132 116.006 221.09 116.258 221.09 116.515ZM229.091 114.961C229.021 114.882 228.939 114.812 228.846 114.751C228.753 114.686 228.648 114.63 228.531 114.583C228.414 114.536 228.288 114.499 228.153 114.471C228.022 114.443 227.882 114.429 227.733 114.429C227.299 114.429 226.979 114.513 226.774 114.681C226.573 114.844 226.473 115.068 226.473 115.353C226.473 115.549 226.52 115.703 226.613 115.815C226.711 115.927 226.863 116.018 227.068 116.088C227.273 116.158 227.535 116.23 227.852 116.305C228.207 116.38 228.512 116.468 228.769 116.571C229.026 116.674 229.224 116.814 229.364 116.991C229.504 117.164 229.574 117.399 229.574 117.698C229.574 117.927 229.53 118.125 229.441 118.293C229.352 118.461 229.229 118.601 229.07 118.713C228.911 118.825 228.722 118.909 228.503 118.965C228.284 119.016 228.043 119.042 227.782 119.042C227.525 119.042 227.278 119.016 227.04 118.965C226.807 118.909 226.585 118.83 226.375 118.727C226.165 118.62 225.969 118.484 225.787 118.321L226.032 117.922C226.121 118.015 226.226 118.104 226.347 118.188C226.473 118.267 226.611 118.34 226.76 118.405C226.914 118.47 227.077 118.522 227.25 118.559C227.427 118.592 227.609 118.608 227.796 118.608C228.193 118.608 228.501 118.536 228.72 118.391C228.944 118.246 229.056 118.032 229.056 117.747C229.056 117.542 229 117.378 228.888 117.257C228.776 117.131 228.608 117.028 228.384 116.949C228.16 116.87 227.885 116.793 227.558 116.718C227.213 116.639 226.921 116.55 226.683 116.452C226.445 116.354 226.265 116.226 226.144 116.067C226.027 115.904 225.969 115.689 225.969 115.423C225.969 115.115 226.044 114.856 226.193 114.646C226.347 114.431 226.557 114.27 226.823 114.163C227.089 114.051 227.395 113.995 227.74 113.995C227.959 113.995 228.162 114.018 228.349 114.065C228.54 114.107 228.715 114.17 228.874 114.254C229.037 114.338 229.189 114.443 229.329 114.569L229.091 114.961ZM233.959 114.464H232.188V119H231.698V114.464H229.927V114.03H233.959V114.464ZM236.727 119.035C236.335 119.035 236.003 118.965 235.733 118.825C235.462 118.685 235.247 118.498 235.089 118.265C234.93 118.027 234.813 117.759 234.739 117.46C234.669 117.161 234.634 116.853 234.634 116.536V114.03H235.117V116.536C235.117 116.793 235.142 117.045 235.194 117.292C235.25 117.539 235.338 117.761 235.46 117.957C235.581 118.153 235.744 118.309 235.95 118.426C236.155 118.538 236.412 118.594 236.72 118.594C237.037 118.594 237.298 118.536 237.504 118.419C237.714 118.298 237.877 118.139 237.994 117.943C238.115 117.747 238.201 117.528 238.253 117.285C238.304 117.038 238.33 116.788 238.33 116.536V114.03H238.82V116.536C238.82 116.867 238.782 117.185 238.708 117.488C238.633 117.791 238.512 118.057 238.344 118.286C238.18 118.515 237.966 118.697 237.7 118.832C237.434 118.967 237.109 119.035 236.727 119.035ZM239.988 119V114.03H241.675C242.202 114.03 242.641 114.142 242.991 114.366C243.345 114.585 243.611 114.884 243.789 115.262C243.966 115.635 244.055 116.051 244.055 116.508C244.055 117.012 243.957 117.451 243.761 117.824C243.569 118.197 243.294 118.487 242.935 118.692C242.58 118.897 242.16 119 241.675 119H239.988ZM243.565 116.508C243.565 116.111 243.49 115.759 243.341 115.451C243.196 115.143 242.984 114.903 242.704 114.73C242.424 114.553 242.081 114.464 241.675 114.464H240.478V118.566H241.675C242.085 118.566 242.431 118.475 242.711 118.293C242.991 118.111 243.203 117.866 243.348 117.558C243.492 117.245 243.565 116.895 243.565 116.508ZM244.992 119V114.03H245.482V119H244.992ZM248.73 119.035C248.38 119.035 248.063 118.965 247.778 118.825C247.493 118.685 247.248 118.496 247.043 118.258C246.838 118.015 246.679 117.745 246.567 117.446C246.455 117.143 246.399 116.832 246.399 116.515C246.399 116.184 246.457 115.869 246.574 115.57C246.691 115.267 246.854 114.998 247.064 114.765C247.279 114.527 247.528 114.34 247.813 114.205C248.098 114.065 248.406 113.995 248.737 113.995C249.087 113.995 249.404 114.067 249.689 114.212C249.974 114.357 250.216 114.55 250.417 114.793C250.622 115.036 250.781 115.306 250.893 115.605C251.005 115.904 251.061 116.209 251.061 116.522C251.061 116.853 251.003 117.171 250.886 117.474C250.769 117.773 250.606 118.041 250.396 118.279C250.186 118.512 249.939 118.697 249.654 118.832C249.369 118.967 249.061 119.035 248.73 119.035ZM246.889 116.515C246.889 116.786 246.933 117.047 247.022 117.299C247.111 117.546 247.237 117.768 247.4 117.964C247.563 118.155 247.757 118.309 247.981 118.426C248.21 118.538 248.459 118.594 248.73 118.594C249.015 118.594 249.269 118.536 249.493 118.419C249.722 118.298 249.915 118.139 250.074 117.943C250.237 117.742 250.361 117.518 250.445 117.271C250.529 117.024 250.571 116.772 250.571 116.515C250.571 116.244 250.527 115.985 250.438 115.738C250.349 115.491 250.221 115.269 250.053 115.073C249.89 114.877 249.696 114.723 249.472 114.611C249.248 114.499 249.001 114.443 248.73 114.443C248.45 114.443 248.196 114.501 247.967 114.618C247.743 114.735 247.549 114.893 247.386 115.094C247.227 115.29 247.104 115.512 247.015 115.759C246.931 116.006 246.889 116.258 246.889 116.515Z" fill="#E9F0F6" fill-opacity="0.8"/>
<path d="M48 126H251" stroke="#E9F0F6" stroke-opacity="0.19" stroke-linecap="round"/>
<path d="M48 175H251" stroke="#E9F0F6" stroke-opacity="0.19" stroke-linecap="round"/>
<defs>
<linearGradient id="paint0_linear_834_33" x1="25.8876" y1="-41.7427" x2="363.66" y2="119.578" gradientUnits="userSpaceOnUse">
<stop offset="0.375493" stop-color="#183144"/>
<stop offset="0.730981" stop-color="#082436"/>
</linearGradient>
</defs>
</svg>
