<svg width="303" height="300" viewBox="0 0 303 300" fill="none" xmlns="http://www.w3.org/2000/svg">
<path d="M52 79H255" stroke="#E9F0F6" stroke-opacity="0.19" stroke-linecap="round"/>
<rect x="3" width="300" height="300" fill="url(#paint0_linear_834_49)"/>
<path d="M73.156 131.864V203H51.628V92.24H68.788L126.04 165.248V92.396H147.568V203H129.628L73.156 131.864Z" fill="#E9F0F6" fill-opacity="0.8"/>
<path d="M182.152 92.24L209.608 133.112L236.908 92.24H260.308L221.932 148.4L259.06 203H235.66L209.608 163.688L183.4 203H159.844L196.972 148.4L158.596 92.24H182.152Z" fill="#FA535B"/>
<path d="M53.4392 76.695V81H53.0822V76.03H53.3762L56.8412 80.405V76.03H57.1982V81H56.8482L53.4392 76.695ZM59.8625 81.07C59.6059 81.07 59.3679 81.021 59.1485 80.923C58.9339 80.825 58.7472 80.6897 58.5885 80.517C58.4299 80.3397 58.3062 80.1367 58.2175 79.908C58.1289 79.6793 58.0845 79.439 58.0845 79.187C58.0845 78.9303 58.1289 78.69 58.2175 78.466C58.3062 78.2373 58.4299 78.0367 58.5885 77.864C58.7519 77.6867 58.9409 77.549 59.1555 77.451C59.3749 77.3483 59.6105 77.297 59.8625 77.297C60.1145 77.297 60.3479 77.3483 60.5625 77.451C60.7772 77.549 60.9662 77.6867 61.1295 77.864C61.2929 78.0367 61.4189 78.2373 61.5075 78.466C61.5962 78.69 61.6405 78.9303 61.6405 79.187C61.6405 79.439 61.5962 79.6793 61.5075 79.908C61.4189 80.1367 61.2929 80.3397 61.1295 80.517C60.9709 80.6897 60.7819 80.825 60.5625 80.923C60.3479 81.021 60.1145 81.07 59.8625 81.07ZM58.4345 79.201C58.4345 79.4857 58.4975 79.747 58.6235 79.985C58.7542 80.2183 58.9269 80.405 59.1415 80.545C59.3562 80.685 59.5942 80.755 59.8555 80.755C60.1169 80.755 60.3549 80.685 60.5695 80.545C60.7889 80.4003 60.9615 80.209 61.0875 79.971C61.2182 79.7283 61.2835 79.4647 61.2835 79.18C61.2835 78.8953 61.2182 78.634 61.0875 78.396C60.9615 78.158 60.7889 77.969 60.5695 77.829C60.3549 77.6843 60.1192 77.612 59.8625 77.612C59.6012 77.612 59.3632 77.6843 59.1485 77.829C58.9339 77.9737 58.7612 78.165 58.6305 78.403C58.4999 78.641 58.4345 78.907 58.4345 79.201ZM62.2271 79.187C62.2271 78.8463 62.2994 78.5337 62.4441 78.249C62.5888 77.9643 62.7871 77.7357 63.0391 77.563C63.2911 77.3857 63.5781 77.297 63.9001 77.297C64.2174 77.297 64.4974 77.381 64.7401 77.549C64.9874 77.717 65.1811 77.9177 65.3211 78.151V75.89H65.6711V80.538C65.6711 80.594 65.6828 80.636 65.7061 80.664C65.7341 80.692 65.7714 80.7083 65.8181 80.713V81C65.7434 81.0093 65.6874 81.0117 65.6501 81.007C65.5661 80.993 65.4961 80.9533 65.4401 80.888C65.3841 80.8227 65.3561 80.7527 65.3561 80.678V80.272C65.2068 80.5147 65.0061 80.7083 64.7541 80.853C64.5021 80.9977 64.2431 81.07 63.9771 81.07C63.7251 81.07 63.4918 81.0187 63.2771 80.916C63.0624 80.8087 62.8758 80.6663 62.7171 80.489C62.5631 80.3117 62.4418 80.111 62.3531 79.887C62.2691 79.663 62.2271 79.4297 62.2271 79.187ZM65.3211 79.775V78.578C65.2558 78.4007 65.1508 78.2397 65.0061 78.095C64.8614 77.9457 64.6981 77.829 64.5161 77.745C64.3341 77.6563 64.1544 77.612 63.9771 77.612C63.7671 77.612 63.5758 77.6563 63.4031 77.745C63.2351 77.8337 63.0881 77.9527 62.9621 78.102C62.8408 78.2513 62.7474 78.4217 62.6821 78.613C62.6168 78.7997 62.5841 78.9933 62.5841 79.194C62.5841 79.3993 62.6214 79.5977 62.6961 79.789C62.7708 79.9757 62.8734 80.1437 63.0041 80.293C63.1394 80.4377 63.2934 80.552 63.4661 80.636C63.6434 80.7153 63.8348 80.755 64.0401 80.755C64.1661 80.755 64.2991 80.7293 64.4391 80.678C64.5838 80.6267 64.7191 80.5567 64.8451 80.468C64.9758 80.3747 65.0831 80.2697 65.1671 80.153C65.2558 80.0317 65.3071 79.9057 65.3211 79.775ZM68.3117 81.07C68.0551 81.07 67.8171 81.021 67.5977 80.923C67.3831 80.825 67.1964 80.6897 67.0377 80.517C66.8791 80.3397 66.7554 80.1367 66.6667 79.908C66.5781 79.6793 66.5337 79.439 66.5337 79.187C66.5337 78.9303 66.5781 78.69 66.6667 78.466C66.7554 78.2373 66.8791 78.0367 67.0377 77.864C67.2011 77.6867 67.3901 77.549 67.6047 77.451C67.8241 77.3483 68.0597 77.297 68.3117 77.297C68.5637 77.297 68.7971 77.3483 69.0117 77.451C69.2264 77.549 69.4154 77.6867 69.5787 77.864C69.7421 78.0367 69.8681 78.2373 69.9567 78.466C70.0454 78.69 70.0897 78.9303 70.0897 79.187C70.0897 79.439 70.0454 79.6793 69.9567 79.908C69.8681 80.1367 69.7421 80.3397 69.5787 80.517C69.4201 80.6897 69.2311 80.825 69.0117 80.923C68.7971 81.021 68.5637 81.07 68.3117 81.07ZM66.8837 79.201C66.8837 79.4857 66.9467 79.747 67.0727 79.985C67.2034 80.2183 67.3761 80.405 67.5907 80.545C67.8054 80.685 68.0434 80.755 68.3047 80.755C68.5661 80.755 68.8041 80.685 69.0187 80.545C69.2381 80.4003 69.4107 80.209 69.5367 79.971C69.6674 79.7283 69.7327 79.4647 69.7327 79.18C69.7327 78.8953 69.6674 78.634 69.5367 78.396C69.4107 78.158 69.2381 77.969 69.0187 77.829C68.8041 77.6843 68.5684 77.612 68.3117 77.612C68.0504 77.612 67.8124 77.6843 67.5977 77.829C67.3831 77.9737 67.2104 78.165 67.0797 78.403C66.9491 78.641 66.8837 78.907 66.8837 79.201ZM71.3356 76.695V81H70.9786V76.03H71.2726L74.7376 80.405V76.03H75.0946V81H74.7446L71.3356 76.695ZM77.78 81.07C77.5233 81.07 77.2853 81.021 77.066 80.923C76.8467 80.8203 76.6553 80.6827 76.492 80.51C76.3333 80.3327 76.2073 80.1297 76.114 79.901C76.0253 79.6677 75.981 79.4227 75.981 79.166C75.981 78.8207 76.058 78.508 76.212 78.228C76.366 77.948 76.5783 77.724 76.849 77.556C77.1197 77.3833 77.423 77.297 77.759 77.297C78.1043 77.297 78.41 77.3833 78.676 77.556C78.942 77.7287 79.152 77.9573 79.306 78.242C79.4647 78.522 79.544 78.83 79.544 79.166C79.544 79.194 79.544 79.222 79.544 79.25C79.544 79.278 79.5417 79.3013 79.537 79.32H76.345C76.3637 79.5953 76.4407 79.845 76.576 80.069C76.7113 80.293 76.884 80.4703 77.094 80.601C77.3087 80.727 77.542 80.79 77.794 80.79C78.046 80.79 78.284 80.7247 78.508 80.594C78.732 80.4633 78.8883 80.2953 78.977 80.09L79.285 80.174C79.215 80.3467 79.103 80.5007 78.949 80.636C78.7997 80.7713 78.6223 80.8787 78.417 80.958C78.2163 81.0327 78.004 81.07 77.78 81.07ZM76.331 79.047H79.208C79.1893 78.7623 79.1147 78.5103 78.984 78.291C78.8533 78.0717 78.6807 77.899 78.466 77.773C78.256 77.647 78.0227 77.584 77.766 77.584C77.5093 77.584 77.276 77.647 77.066 77.773C76.856 77.899 76.6857 78.0717 76.555 78.291C76.4243 78.5103 76.3497 78.7623 76.331 79.047ZM80.1562 77.36L81.3182 78.865L81.3742 78.963L81.4302 78.865L82.5852 77.36H82.9912L81.5772 79.187L82.9842 81H82.5782L81.4302 79.502L81.3742 79.411L81.3182 79.502L80.1632 81H79.7642L81.1642 79.187L79.7572 77.36H80.1562ZM83.6218 79.46V77.36H83.9718V79.411C83.9718 79.8637 84.0465 80.202 84.1958 80.426C84.3498 80.6453 84.5808 80.755 84.8888 80.755C85.0942 80.755 85.2902 80.7107 85.4768 80.622C85.6682 80.5287 85.8362 80.4003 85.9808 80.237C86.1255 80.069 86.2328 79.8753 86.3028 79.656V77.36H86.6528V80.538C86.6528 80.594 86.6645 80.636 86.6878 80.664C86.7158 80.692 86.7532 80.7083 86.7998 80.713V81C86.7532 81.0047 86.7158 81.007 86.6878 81.007C86.6645 81.007 86.6435 81.0047 86.6248 81C86.5455 80.9907 86.4802 80.958 86.4288 80.902C86.3775 80.8413 86.3495 80.769 86.3448 80.685L86.3378 80.139C86.1792 80.4283 85.9598 80.657 85.6798 80.825C85.4045 80.9883 85.1058 81.07 84.7838 81.07C84.4012 81.07 84.1118 80.9347 83.9158 80.664C83.7198 80.3933 83.6218 79.992 83.6218 79.46ZM88.9132 81.07C88.6239 81.07 88.3556 81.021 88.1082 80.923C87.8609 80.825 87.6439 80.6757 87.4572 80.475L87.6182 80.23C87.8189 80.4213 88.0219 80.5613 88.2272 80.65C88.4326 80.734 88.6566 80.776 88.8992 80.776C89.2119 80.776 89.4639 80.7107 89.6552 80.58C89.8512 80.4493 89.9492 80.2673 89.9492 80.034C89.9492 79.8753 89.9026 79.754 89.8092 79.67C89.7206 79.5813 89.5899 79.5113 89.4172 79.46C89.2492 79.404 89.0439 79.3457 88.8012 79.285C88.5539 79.2197 88.3439 79.152 88.1712 79.082C88.0032 79.012 87.8772 78.921 87.7932 78.809C87.7092 78.697 87.6672 78.5453 87.6672 78.354C87.6672 78.116 87.7256 77.92 87.8422 77.766C87.9636 77.6073 88.1246 77.4907 88.3252 77.416C88.5306 77.3367 88.7569 77.297 89.0042 77.297C89.2889 77.297 89.5362 77.3437 89.7462 77.437C89.9609 77.5303 90.1242 77.654 90.2362 77.808L90.0472 78.032C89.9306 77.8827 89.7789 77.773 89.5922 77.703C89.4056 77.6283 89.2002 77.591 88.9762 77.591C88.8082 77.591 88.6496 77.6143 88.5002 77.661C88.3509 77.7077 88.2296 77.7847 88.1362 77.892C88.0476 77.9947 88.0032 78.1347 88.0032 78.312C88.0032 78.452 88.0359 78.5617 88.1012 78.641C88.1712 78.7203 88.2739 78.7857 88.4092 78.837C88.5446 78.8837 88.7126 78.935 88.9132 78.991C89.1979 79.061 89.4429 79.1333 89.6482 79.208C89.8536 79.2827 90.0122 79.3807 90.1242 79.502C90.2362 79.6187 90.2922 79.7843 90.2922 79.999C90.2922 80.3303 90.1662 80.5917 89.9142 80.783C89.6622 80.9743 89.3286 81.07 88.9132 81.07Z" fill="white"/>
<path d="M224.337 214.695V219H223.98V214.03H224.274L227.739 218.405V214.03H228.096V219H227.746L224.337 214.695ZM230.76 219.07C230.503 219.07 230.265 219.021 230.046 218.923C229.831 218.825 229.645 218.69 229.486 218.517C229.327 218.34 229.204 218.137 229.115 217.908C229.026 217.679 228.982 217.439 228.982 217.187C228.982 216.93 229.026 216.69 229.115 216.466C229.204 216.237 229.327 216.037 229.486 215.864C229.649 215.687 229.838 215.549 230.053 215.451C230.272 215.348 230.508 215.297 230.76 215.297C231.012 215.297 231.245 215.348 231.46 215.451C231.675 215.549 231.864 215.687 232.027 215.864C232.19 216.037 232.316 216.237 232.405 216.466C232.494 216.69 232.538 216.93 232.538 217.187C232.538 217.439 232.494 217.679 232.405 217.908C232.316 218.137 232.19 218.34 232.027 218.517C231.868 218.69 231.679 218.825 231.46 218.923C231.245 219.021 231.012 219.07 230.76 219.07ZM229.332 217.201C229.332 217.486 229.395 217.747 229.521 217.985C229.652 218.218 229.824 218.405 230.039 218.545C230.254 218.685 230.492 218.755 230.753 218.755C231.014 218.755 231.252 218.685 231.467 218.545C231.686 218.4 231.859 218.209 231.985 217.971C232.116 217.728 232.181 217.465 232.181 217.18C232.181 216.895 232.116 216.634 231.985 216.396C231.859 216.158 231.686 215.969 231.467 215.829C231.252 215.684 231.017 215.612 230.76 215.612C230.499 215.612 230.261 215.684 230.046 215.829C229.831 215.974 229.659 216.165 229.528 216.403C229.397 216.641 229.332 216.907 229.332 217.201ZM233.125 217.187C233.125 216.846 233.197 216.534 233.342 216.249C233.486 215.964 233.685 215.736 233.937 215.563C234.189 215.386 234.476 215.297 234.798 215.297C235.115 215.297 235.395 215.381 235.638 215.549C235.885 215.717 236.079 215.918 236.219 216.151V213.89H236.569V218.538C236.569 218.594 236.58 218.636 236.604 218.664C236.632 218.692 236.669 218.708 236.716 218.713V219C236.641 219.009 236.585 219.012 236.548 219.007C236.464 218.993 236.394 218.953 236.338 218.888C236.282 218.823 236.254 218.753 236.254 218.678V218.272C236.104 218.515 235.904 218.708 235.652 218.853C235.4 218.998 235.141 219.07 234.875 219.07C234.623 219.07 234.389 219.019 234.175 218.916C233.96 218.809 233.773 218.666 233.615 218.489C233.461 218.312 233.339 218.111 233.251 217.887C233.167 217.663 233.125 217.43 233.125 217.187ZM236.219 217.775V216.578C236.153 216.401 236.048 216.24 235.904 216.095C235.759 215.946 235.596 215.829 235.414 215.745C235.232 215.656 235.052 215.612 234.875 215.612C234.665 215.612 234.473 215.656 234.301 215.745C234.133 215.834 233.986 215.953 233.86 216.102C233.738 216.251 233.645 216.422 233.58 216.613C233.514 216.8 233.482 216.993 233.482 217.194C233.482 217.399 233.519 217.598 233.594 217.789C233.668 217.976 233.771 218.144 233.902 218.293C234.037 218.438 234.191 218.552 234.364 218.636C234.541 218.715 234.732 218.755 234.938 218.755C235.064 218.755 235.197 218.729 235.337 218.678C235.481 218.627 235.617 218.557 235.743 218.468C235.873 218.375 235.981 218.27 236.065 218.153C236.153 218.032 236.205 217.906 236.219 217.775ZM239.209 219.07C238.953 219.07 238.715 219.021 238.495 218.923C238.281 218.825 238.094 218.69 237.935 218.517C237.777 218.34 237.653 218.137 237.564 217.908C237.476 217.679 237.431 217.439 237.431 217.187C237.431 216.93 237.476 216.69 237.564 216.466C237.653 216.237 237.777 216.037 237.935 215.864C238.099 215.687 238.288 215.549 238.502 215.451C238.722 215.348 238.957 215.297 239.209 215.297C239.461 215.297 239.695 215.348 239.909 215.451C240.124 215.549 240.313 215.687 240.476 215.864C240.64 216.037 240.766 216.237 240.854 216.466C240.943 216.69 240.987 216.93 240.987 217.187C240.987 217.439 240.943 217.679 240.854 217.908C240.766 218.137 240.64 218.34 240.476 218.517C240.318 218.69 240.129 218.825 239.909 218.923C239.695 219.021 239.461 219.07 239.209 219.07ZM237.781 217.201C237.781 217.486 237.844 217.747 237.97 217.985C238.101 218.218 238.274 218.405 238.488 218.545C238.703 218.685 238.941 218.755 239.202 218.755C239.464 218.755 239.702 218.685 239.916 218.545C240.136 218.4 240.308 218.209 240.434 217.971C240.565 217.728 240.63 217.465 240.63 217.18C240.63 216.895 240.565 216.634 240.434 216.396C240.308 216.158 240.136 215.969 239.916 215.829C239.702 215.684 239.466 215.612 239.209 215.612C238.948 215.612 238.71 215.684 238.495 215.829C238.281 215.974 238.108 216.165 237.977 216.403C237.847 216.641 237.781 216.907 237.781 217.201ZM244.781 214.856C244.701 214.767 244.613 214.69 244.515 214.625C244.417 214.555 244.312 214.499 244.2 214.457C244.088 214.41 243.966 214.375 243.836 214.352C243.705 214.329 243.565 214.317 243.416 214.317C242.93 214.317 242.576 214.41 242.352 214.597C242.132 214.779 242.023 215.026 242.023 215.339C242.023 215.549 242.072 215.717 242.17 215.843C242.272 215.964 242.431 216.062 242.646 216.137C242.86 216.212 243.138 216.284 243.479 216.354C243.838 216.429 244.148 216.517 244.41 216.62C244.671 216.718 244.872 216.853 245.012 217.026C245.156 217.199 245.229 217.432 245.229 217.726C245.229 217.945 245.187 218.139 245.103 218.307C245.019 218.47 244.897 218.606 244.739 218.713C244.58 218.82 244.391 218.902 244.172 218.958C243.957 219.014 243.717 219.042 243.451 219.042C243.194 219.042 242.949 219.014 242.716 218.958C242.482 218.902 242.263 218.82 242.058 218.713C241.852 218.606 241.661 218.468 241.484 218.3L241.673 218.013C241.775 218.125 241.89 218.225 242.016 218.314C242.146 218.398 242.286 218.47 242.436 218.531C242.59 218.592 242.753 218.641 242.926 218.678C243.098 218.711 243.278 218.727 243.465 218.727C243.899 218.727 244.237 218.648 244.48 218.489C244.727 218.326 244.851 218.085 244.851 217.768C244.851 217.549 244.795 217.371 244.683 217.236C244.571 217.101 244.398 216.991 244.165 216.907C243.931 216.818 243.64 216.737 243.29 216.662C242.94 216.587 242.641 216.503 242.394 216.41C242.151 216.317 241.967 216.191 241.841 216.032C241.719 215.873 241.659 215.659 241.659 215.388C241.659 215.089 241.731 214.837 241.876 214.632C242.025 214.422 242.233 214.263 242.499 214.156C242.765 214.049 243.07 213.995 243.416 213.995C243.63 213.995 243.829 214.016 244.011 214.058C244.197 214.1 244.368 214.165 244.522 214.254C244.68 214.338 244.827 214.445 244.963 214.576L244.781 214.856ZM247.592 218.825C247.569 218.834 247.522 218.858 247.452 218.895C247.382 218.932 247.294 218.967 247.186 219C247.079 219.028 246.96 219.042 246.829 219.042C246.703 219.042 246.584 219.019 246.472 218.972C246.365 218.921 246.279 218.846 246.213 218.748C246.148 218.65 246.115 218.531 246.115 218.391V215.647H245.604V215.36H246.115V214.114H246.465V215.36H247.312V215.647H246.465V218.307C246.475 218.442 246.524 218.545 246.612 218.615C246.701 218.68 246.804 218.713 246.92 218.713C247.065 218.713 247.191 218.69 247.298 218.643C247.406 218.592 247.469 218.559 247.487 218.545L247.592 218.825ZM248.176 217.46V215.36H248.526V217.411C248.526 217.864 248.6 218.202 248.75 218.426C248.904 218.645 249.135 218.755 249.443 218.755C249.648 218.755 249.844 218.711 250.031 218.622C250.222 218.529 250.39 218.4 250.535 218.237C250.679 218.069 250.787 217.875 250.857 217.656V215.36H251.207V218.538C251.207 218.594 251.218 218.636 251.242 218.664C251.27 218.692 251.307 218.708 251.354 218.713V219C251.307 219.005 251.27 219.007 251.242 219.007C251.218 219.007 251.197 219.005 251.179 219C251.099 218.991 251.034 218.958 250.983 218.902C250.931 218.841 250.903 218.769 250.899 218.685L250.892 218.139C250.733 218.428 250.514 218.657 250.234 218.825C249.958 218.988 249.66 219.07 249.338 219.07C248.955 219.07 248.666 218.935 248.47 218.664C248.274 218.393 248.176 217.992 248.176 217.46ZM252.067 217.187C252.067 216.846 252.139 216.534 252.284 216.249C252.429 215.964 252.627 215.736 252.879 215.563C253.131 215.386 253.418 215.297 253.74 215.297C254.057 215.297 254.337 215.381 254.58 215.549C254.827 215.717 255.021 215.918 255.161 216.151V213.89H255.511V218.538C255.511 218.594 255.523 218.636 255.546 218.664C255.574 218.692 255.611 218.708 255.658 218.713V219C255.583 219.009 255.527 219.012 255.49 219.007C255.406 218.993 255.336 218.953 255.28 218.888C255.224 218.823 255.196 218.753 255.196 218.678V218.272C255.047 218.515 254.846 218.708 254.594 218.853C254.342 218.998 254.083 219.07 253.817 219.07C253.565 219.07 253.332 219.019 253.117 218.916C252.902 218.809 252.716 218.666 252.557 218.489C252.403 218.312 252.282 218.111 252.193 217.887C252.109 217.663 252.067 217.43 252.067 217.187ZM255.161 217.775V216.578C255.096 216.401 254.991 216.24 254.846 216.095C254.701 215.946 254.538 215.829 254.356 215.745C254.174 215.656 253.994 215.612 253.817 215.612C253.607 215.612 253.416 215.656 253.243 215.745C253.075 215.834 252.928 215.953 252.802 216.102C252.681 216.251 252.587 216.422 252.522 216.613C252.457 216.8 252.424 216.993 252.424 217.194C252.424 217.399 252.461 217.598 252.536 217.789C252.611 217.976 252.713 218.144 252.844 218.293C252.979 218.438 253.133 218.552 253.306 218.636C253.483 218.715 253.675 218.755 253.88 218.755C254.006 218.755 254.139 218.729 254.279 218.678C254.424 218.627 254.559 218.557 254.685 218.468C254.816 218.375 254.923 218.27 255.007 218.153C255.096 218.032 255.147 217.906 255.161 217.775ZM256.626 219V215.36H256.976V219H256.626ZM256.626 214.534V213.89H256.976V214.534H256.626ZM259.601 219.07C259.344 219.07 259.106 219.021 258.887 218.923C258.672 218.825 258.485 218.69 258.327 218.517C258.168 218.34 258.044 218.137 257.956 217.908C257.867 217.679 257.823 217.439 257.823 217.187C257.823 216.93 257.867 216.69 257.956 216.466C258.044 216.237 258.168 216.037 258.327 215.864C258.49 215.687 258.679 215.549 258.894 215.451C259.113 215.348 259.349 215.297 259.601 215.297C259.853 215.297 260.086 215.348 260.301 215.451C260.515 215.549 260.704 215.687 260.868 215.864C261.031 216.037 261.157 216.237 261.246 216.466C261.334 216.69 261.379 216.93 261.379 217.187C261.379 217.439 261.334 217.679 261.246 217.908C261.157 218.137 261.031 218.34 260.868 218.517C260.709 218.69 260.52 218.825 260.301 218.923C260.086 219.021 259.853 219.07 259.601 219.07ZM258.173 217.201C258.173 217.486 258.236 217.747 258.362 217.985C258.492 218.218 258.665 218.405 258.88 218.545C259.094 218.685 259.332 218.755 259.594 218.755C259.855 218.755 260.093 218.685 260.308 218.545C260.527 218.4 260.7 218.209 260.826 217.971C260.956 217.728 261.022 217.465 261.022 217.18C261.022 216.895 260.956 216.634 260.826 216.396C260.7 216.158 260.527 215.969 260.308 215.829C260.093 215.684 259.857 215.612 259.601 215.612C259.339 215.612 259.101 215.684 258.887 215.829C258.672 215.974 258.499 216.165 258.369 216.403C258.238 216.641 258.173 216.907 258.173 217.201Z" fill="white"/>
<defs>
<linearGradient id="paint0_linear_834_49" x1="28.8876" y1="-41.7427" x2="366.66" y2="119.578" gradientUnits="userSpaceOnUse">
<stop offset="0.375493" stop-color="#183144"/>
<stop offset="0.730981" stop-color="#082436"/>
</linearGradient>
</defs>
</svg>
